# xmcd
#
# Track frame offsets: 
#        150
#        19519
#        39484
#        62760
#        80965
#        103498
#        119110
#        136022
#        157497
#        178038
#        192004
#        206713
#        224464
#
# Disc length: 3239 seconds
#
# Revision: 0
# Processed by: cddbd v1.5.2PL0 Copyright (c) Steve Scherf et al.
# Submitted via: ExactAudioCopy v1.0b4
#
DISCID=ca0ca50d
DTITLE=Selwyn Birchwood - Pick Your Poison
DYEAR=2017
DGENRE=Blues
TTITLE0=Trial By Fire
TTITLE1=Even The Saved Need Saving
TTITLE2=Guilty Pleasures
TTITLE3=Pick Your Poison
TTITLE4=Heavy Heart
TTITLE5=Haunted
TTITLE6=Are Ya Ready?
TTITLE7=Reaping Time
TTITLE8=R We Krazy?
TTITLE9=Police State
TTITLE10=My Whiskey Loves My Ex
TTITLE11=Lost In You
TTITLE12=Corporate Drone
EXTD=
EXTT0=
EXTT1=
EXTT2=
EXTT3=
EXTT4=
EXTT5=
EXTT6=
EXTT7=
EXTT8=
EXTT9=
EXTT10=
EXTT11=
EXTT12=
PLAYORDER=
